# xmcd CD database file
#
# Track frame offsets:
#	150
#	18387
#	43212
#	55237
#	77247
#	97510
#	116115
#	129627
#	147517
#	164445
#
# Disc length: 2335 seconds
#
# Revision: 1
# Processed by: cddbd v1.4PL0 Copyright (c) Steve Scherf et al.
# Submitted via: CDex 1.50Beta6
#
DISCID=87091d0a
DTITLE=John Lewis - Fast Solo
DYEAR=1976
DGENRE=Jazz
TTITLE0=Milano
TTITLE1=Django
TTITLE2=Afternoon in Paris
TTITLE3=I Didn't Know What Time it Was
TTITLE4=Plastic Dreams
TTITLE5=Romance
TTITLE6=Confirmation
TTITLE7=2 East 3 West
TTITLE8=Round Midnight
TTITLE9=Kilostone
EXTD=YEAR: 1976
EXTT0=
EXTT1=
EXTT2=
EXTT3=
EXTT4=
EXTT5=
EXTT6=
EXTT7=
EXTT8=
EXTT9=
PLAYORDER=
